TITLE ""
FILE "2Q_t_0188-0200.mp3" MP3
  TRACK 01 AUDIO
    TITLE "2Q_t_0188-0200_01"
    INDEX 01 00:00:00
  TRACK 02 AUDIO
    TITLE "2Q_t_0188-0200_02"
    INDEX 01 00:01:14
  TRACK 03 AUDIO
    TITLE "2Q_t_0188-0200_03"
    INDEX 01 00:01:63
  TRACK 04 AUDIO
    TITLE "2Q_t_0188-0200_04"
    INDEX 01 00:04:32
  TRACK 05 AUDIO
    TITLE "2Q_t_0188-0200_05"
    INDEX 01 00:05:02
  TRACK 06 AUDIO
    TITLE "2Q_t_0188-0200_06"
    INDEX 01 00:06:19
  TRACK 07 AUDIO
    TITLE "2Q_t_0188-0200_07"
    INDEX 01 00:06:64
  TRACK 08 AUDIO
    TITLE "2Q_t_0188-0200_08"
    INDEX 01 00:08:10
  TRACK 09 AUDIO
    TITLE "2Q_t_0188-0200_09"
    INDEX 01 00:08:53
  TRACK 10 AUDIO
    TITLE "2Q_t_0188-0200_10"
    INDEX 01 00:10:01
  TRACK 11 AUDIO
    TITLE "2Q_t_0188-0200_11"
    INDEX 01 00:10:48
  TRACK 12 AUDIO
    TITLE "2Q_t_0188-0200_12"
    INDEX 01 00:11:69
  TRACK 13 AUDIO
    TITLE "2Q_t_0188-0200_13"
    INDEX 01 00:12:39
  TRACK 14 AUDIO
    TITLE "2Q_t_0188-0200_14"
    INDEX 01 00:13:60
  TRACK 15 AUDIO
    TITLE "2Q_t_0188-0200_15"
    INDEX 01 00:14:40
  TRACK 16 AUDIO
    TITLE "2Q_t_0188-0200_16"
    INDEX 01 00:17:01
  TRACK 17 AUDIO
    TITLE "2Q_t_0188-0200_17"
    INDEX 01 00:17:48
  TRACK 18 AUDIO
    TITLE "2Q_t_0188-0200_18"
    INDEX 01 00:18:61
  TRACK 19 AUDIO
    TITLE "2Q_t_0188-0200_19"
    INDEX 01 00:19:31
  TRACK 20 AUDIO
    TITLE "2Q_t_0188-0200_20"
    INDEX 01 00:21:61
  TRACK 21 AUDIO
    TITLE "2Q_t_0188-0200_21"
    INDEX 01 00:22:31
  TRACK 22 AUDIO
    TITLE "2Q_t_0188-0200_22"
    INDEX 01 00:23:54
  TRACK 23 AUDIO
    TITLE "2Q_t_0188-0200_23"
    INDEX 01 00:24:26
  TRACK 24 AUDIO
    TITLE "2Q_t_0188-0200_24"
    INDEX 01 00:27:74
  TRACK 25 AUDIO
    TITLE "2Q_t_0188-0200_25"
    INDEX 01 00:28:44
  TRACK 26 AUDIO
    TITLE "2Q_t_0188-0200_26"
    INDEX 01 00:29:53
  TRACK 27 AUDIO
    TITLE "2Q_t_0188-0200_27"
    INDEX 01 00:30:29
  TRACK 28 AUDIO
    TITLE "2Q_t_0188-0200_28"
    INDEX 01 00:32:73
  TRACK 29 AUDIO
    TITLE "2Q_t_0188-0200_29"
    INDEX 01 00:33:43
  TRACK 30 AUDIO
    TITLE "2Q_t_0188-0200_30"
    INDEX 01 00:34:48
  TRACK 31 AUDIO
    TITLE "2Q_t_0188-0200_31"
    INDEX 01 00:35:18
  TRACK 32 AUDIO
    TITLE "2Q_t_0188-0200_32"
    INDEX 01 00:36:61
  TRACK 33 AUDIO
    TITLE "2Q_t_0188-0200_33"
    INDEX 01 00:37:31
  TRACK 34 AUDIO
    TITLE "2Q_t_0188-0200_34"
    INDEX 01 00:39:75
  TRACK 35 AUDIO
    TITLE "2Q_t_0188-0200_35"
    INDEX 01 00:40:47
  TRACK 36 AUDIO
    TITLE "2Q_t_0188-0200_36"
    INDEX 01 00:41:64
  TRACK 37 AUDIO
    TITLE "2Q_t_0188-0200_37"
    INDEX 01 00:42:34
  TRACK 38 AUDIO
    TITLE "2Q_t_0188-0200_38"
    INDEX 01 00:43:49
  TRACK 39 AUDIO
    TITLE "2Q_t_0188-0200_39"
    INDEX 01 00:44:21
  TRACK 40 AUDIO
    TITLE "2Q_t_0188-0200_40"
    INDEX 01 00:45:38
  TRACK 41 AUDIO
    TITLE "2Q_t_0188-0200_41"
    INDEX 01 00:46:14
  TRACK 42 AUDIO
    TITLE "2Q_t_0188-0200_42"
    INDEX 01 00:47:29
  TRACK 43 AUDIO
    TITLE "2Q_t_0188-0200_43"
    INDEX 01 00:47:75
  TRACK 44 AUDIO
    TITLE "2Q_t_0188-0200_44"
    INDEX 01 00:49:28
  TRACK 45 AUDIO
    TITLE "2Q_t_0188-0200_45"
    INDEX 01 00:49:75
  TRACK 46 AUDIO
    TITLE "2Q_t_0188-0200_46"
    INDEX 01 00:52:33
  TRACK 47 AUDIO
    TITLE "2Q_t_0188-0200_47"
    INDEX 01 00:53:05
  TRACK 48 AUDIO
    TITLE "2Q_t_0188-0200_48"
    INDEX 01 00:54:14
  TRACK 49 AUDIO
    TITLE "2Q_t_0188-0200_49"
    INDEX 01 00:54:61
  TRACK 50 AUDIO
    TITLE "2Q_t_0188-0200_50"
    INDEX 01 00:58:02
  TRACK 51 AUDIO
    TITLE "2Q_t_0188-0200_51"
    INDEX 01 00:58:47
  TRACK 52 AUDIO
    TITLE "2Q_t_0188-0200_52"
    INDEX 01 00:59:74
  TRACK 53 AUDIO
    TITLE "2Q_t_0188-0200_53"
    INDEX 01 01:00:50
  TRACK 54 AUDIO
    TITLE "2Q_t_0188-0200_54"
    INDEX 01 01:04:08
